# Exported from Wings 3D 1.2
mtllib laser.mtl
o laser
#49 vertices, 94 faces
v -8.7495047e-2 -1.3556040e-2 0.26596533
v -8.0650003e-2 -4.7971381e-2 0.26560744
v -6.1155183e-2 -7.7147233e-2 0.26526102
v -3.1978494e-2 -9.6641837e-2 0.26497881
v 2.4381752e-3 -0.10348732 0.26480378
v 3.6855200e-2 -9.6641510e-2 0.26476256
v 6.6032901e-2 -7.7146628e-2 0.26486144
v 8.5529236e-2 -4.7970591e-2 0.26508537
v 9.2376066e-2 -1.3555185e-2 0.26540024
v 8.5531022e-2 2.0860155e-2 0.26575813
v 6.6036202e-2 5.0036008e-2 0.26610455
v 3.6859513e-2 6.9530612e-2 0.26638676
v 2.4428435e-3 7.6376092e-2 0.26656179
v -3.1974181e-2 6.9530285e-2 0.26660300
v -6.1151882e-2 5.0035403e-2 0.26650412
v -8.0648217e-2 2.0859366e-2 0.26628020
v -8.7775497e-5 1.0805155e-3 -0.53907029
v -0.26493576 -4.1306105e-3 -5.2133463e-3
v -0.24465059 -0.10611991 -6.2739426e-3
v -0.18687801 -0.19258207 -7.3005454e-3
v -0.10041337 -0.25035401 -8.1368636e-3
v 1.5798686e-3 -0.27064048 -8.6555754e-3
v 0.10357416 -0.25035304 -8.7777116e-3
v 0.19004180 -0.19258028 -8.4846781e-3
v 0.24781887 -0.10611757 -7.8210866e-3
v 0.26810933 -4.1280775e-3 -6.8879628e-3
v 0.24782416 9.7861221e-2 -5.8273664e-3
v 0.19005158 0.18432338 -4.8007637e-3
v 0.10358694 0.24209532 -3.9644455e-3
v 1.5937030e-3 0.26238179 -3.4457337e-3
v -0.10040059 0.24209435 -3.3235975e-3
v -0.18686822 0.18432159 -3.6166310e-3
v -0.24464529 9.7858881e-2 -4.2802225e-3
v -8.5581432e-2 -1.3343435e-2 0.87508606
v -7.8736388e-2 -4.7758776e-2 0.87472817
v -5.9241568e-2 -7.6934628e-2 0.87438175
v -3.0064879e-2 -9.6429232e-2 0.87409955
v 4.3517902e-3 -0.10327471 0.87392451
v 3.8768815e-2 -9.6428905e-2 0.87388330
v 6.7946516e-2 -7.6934024e-2 0.87398218
v 8.7442851e-2 -4.7757986e-2 0.87420610
v 9.4289681e-2 -1.3342581e-2 0.87452098
v 8.7444637e-2 2.1072760e-2 0.87487886
v 6.7949817e-2 5.0248612e-2 0.87522528
v 3.8773128e-2 6.9743216e-2 0.87550749
v 4.3564585e-3 7.6588696e-2 0.87568252
v -3.0060566e-2 6.9742889e-2 0.87572374
v -5.9238267e-2 5.0248008e-2 0.87562486
v -7.8734602e-2 2.1071970e-2 0.87540093
vt 6.9831187e-2 0.72796059
vt 8.3090249e-2 0.71326388
vt 9.6389586e-2 0.69860534
vt 0.10970090 0.68396135
vt 0.11752303 0.33528364
vt 0.13711516 0.31113766
vt 0.15667077 0.28696210
vt 0.17615878 0.26273202
vt 0.17750483 0.52474927
vt 0.19556798 0.23840636
vt 0.21490734 0.21395252
vt 0.23420377 0.18935349
vt 0.25349657 0.16461176
vt 0.27284180 0.13972815
vt 0.29229535 0.11472623
vt 0.31192019 8.9612263e-2
vt 0.31944313 0.82942851
vt 0.32634455 0.95651331
vt 0.33176856 6.4408551e-2
vt 0.33959425 0.94181000
vt 0.35287479 0.92713819
vt 0.35365307 4.1096511e-2
vt 0.36617673 0.91248759
vt 0.37024424 0.80011709
vt 0.37561229 1.7895704e-2
vt 0.41517678 0.76242123
vt 0.45287265 0.71748868
vt 0.48218406 0.66668757
vt 0.54001099 0.67119096
vt 0.55960312 0.64704498
vt 0.57915873 0.62286942
vt 0.59724824 0.60283661
vt 0.61507186 0.58223730
vt 0.63277276 0.56134432
vt 0.65047474 0.54033709
vt 0.66406322 0.28074879
vt 0.66792428 0.26133792
vt 0.66792428 0.30015966
vt 0.66820079 0.51941050
vt 0.67891966 0.24488217
vt 0.67891966 0.31661541
vt 0.67967252 0.76630430
vt 0.68612214 0.49857460
vt 0.69537540 0.23388680
vt 0.69537540 0.32761078
vt 0.70419073 0.47800366
vt 0.71478627 0.23002573
vt 0.71478627 0.33147184
vt 0.72186415 0.72852045
vt 0.72255741 0.45762953
vt 0.73180480 0.69002953
vt 0.73419715 0.23388680
vt 0.73419715 0.32761078
vt 0.74115194 0.43757178
vt 0.74315814 0.65705517
vt 0.75065289 0.31661541
vt 0.75065289 0.24488217
vt 0.75574963 0.62837683
vt 0.76001887 0.41777812
vt 0.76164827 0.26133792
vt 0.76164827 0.30015966
vt 0.76550933 0.28074879
vt 0.76957056 0.60297341
vt 0.77907479 0.39826308
vt 0.78452345 0.58018192
vt 0.79179145 0.38514827
vt 0.80080937 0.55927977
vt 0.80186195 0.37052644
vt 0.80857846 0.35409166
vt 0.81103492 0.31886568
vt 0.81166954 0.33660857
vt 0.81850237 0.53988911
vt 0.83799472 0.52149164
vt 0.85966329 0.50380034
vt 0.88413311 0.48648054
vt 0.91221747 0.46924710
vt 0.94527901 0.45159617
vt 0.95824413 0.69088413
vt 0.96518325 0.40289199
vt 0.97246295 0.29850035
vt 0.97434363 0.35108114
vn -0.95765615 -2.9812110e-3 0.28789896
vn -0.88502113 -0.36990270 0.28268284
vn -0.67738010 -0.68117188 0.27777880
vn -0.36628131 -0.88926382 0.27394864
vn 8.5843325e-4 -0.96235587 0.27179119
vn 0.36800379 -0.88926033 0.27164180
vn 0.67911853 -0.68116544 0.27351721
vn 0.88678332 -0.36989428 0.27711653
vn 0.95944619 -2.9721011e-3 0.28187618
vn 0.88618461 0.36369022 0.28706491
vn 0.67828390 0.67433374 0.29189888
vn 0.36744440 0.88180006 0.29565735
vn 9.3098139e-4 0.95463298 0.29778348
vn -0.36558786 0.88179658 0.29796025
vn -0.67644288 0.67432730 0.29615490
vn -0.88436690 0.36368180 0.29262728
vn -3.1414847e-3 9.7737205e-3 -0.99994730
vn -0.99820568 -7.7112292e-4 5.9873496e-2
vn -0.89647003 -0.37422756 0.23726613
vn -0.70595788 -0.70677434 4.5754809e-2
vn -0.37149476 -0.90106590 0.22376750
vn 1.2425604e-4 -0.99927620 3.8040305e-2
vn 0.37290195 -0.90106236 0.22142890
vn 0.70623815 -0.70676763 4.1318249e-2
vn 0.89794667 -0.37421903 0.23162879
vn 0.99856217 -7.6163446e-4 5.3600442e-2
vn 0.89603169 0.36811430 0.24823189
vn 0.70602367 0.70495232 6.7622525e-2
vn 0.37105635 0.89102936 0.26150311
vn 2.3163151e-4 0.99716553 7.5238624e-2
vn -0.36941443 0.89102584 0.26382937
vn -0.70559155 0.70494561 7.2057261e-2
vn -0.89445782 0.36810579 0.25385690
vn -0.88947759 -4.4432839e-3 0.45695719
vn -0.73061177 -0.30936425 0.60868727
vn -0.38307163 -0.39387017 0.83553720
vn -0.30070925 -0.73652294 0.60589430
vn 2.6203918e-3 -0.55287907 0.83325738
vn 0.30451723 -0.73652006 0.60399292
vn 0.38831761 -0.39386651 0.83311380
vn 0.82322211 -0.34484483 0.45098492
vn 0.89233121 -4.4348169e-3 0.45135945
vn 0.73717208 0.29862677 0.60613478
vn 0.39086777 0.38004696 0.83832374
vn 0.30726954 0.73127278 0.60895447
vn 2.6383737e-3 0.54159307 0.84063666
vn -0.30344428 0.73126988 0.61087309
vn -0.38559635 0.38004327 0.84076309
vn -0.82294894 0.33703560 0.45734238
g laser
usemtl laser_auv
s 1
f 1/43/1 19/63/19 2/39/2
f 1/43/1 33/67/33 18/65/18
f 1/43/1 49/15/49 16/46/16
f 2/39/2 19/63/19 3/35/3
f 2/39/2 35/13/35 1/43/1
f 3/35/3 19/63/19 20/58/20
f 3/35/3 21/55/21 4/34/4
f 3/35/3 35/13/35 2/39/2
f 4/34/4 21/55/21 5/33/5
f 4/34/4 37/11/37 3/35/3
f 5/33/5 21/55/21 22/51/22
f 5/33/5 23/49/23 6/32/6
f 5/33/5 37/11/37 4/34/4
f 6/32/6 23/49/23 7/31/7
f 6/32/6 39/8/39 5/33/5
f 7/31/7 23/49/23 24/42/24
f 7/70/7 25/81/25 8/71/8
f 7/31/7 39/8/39 6/32/6
f 8/71/8 25/81/25 9/69/9
f 8/30/8 41/6/41 7/31/7
f 9/69/9 25/81/25 26/79/26
f 9/69/9 27/77/27 10/68/10
f 9/29/9 41/6/41 8/30/8
f 10/68/10 27/77/27 11/66/11
f 10/21/10 43/3/43 9/23/9
f 11/66/11 27/77/27 28/76/28
f 11/66/11 29/75/29 12/64/12
f 11/20/11 43/3/43 10/21/10
f 12/64/12 29/75/29 13/59/13
f 12/18/12 45/1/45 11/20/11
f 13/59/13 29/75/29 30/74/30
f 13/59/13 31/73/31 14/54/14
f 13/59/13 45/25/45 12/64/12
f 14/54/14 31/73/31 15/50/15
f 14/54/14 47/19/47 13/59/13
f 15/50/15 31/73/31 32/72/32
f 15/50/15 33/67/33 16/46/16
f 15/50/15 47/19/47 14/54/14
f 16/46/16 33/67/33 1/43/1
f 16/46/16 49/15/49 15/50/15
f 17/78/17 19/63/19 18/65/18
f 17/78/17 20/58/20 19/63/19
f 17/78/17 21/55/21 20/58/20
f 17/78/17 22/51/22 21/55/21
f 17/78/17 23/49/23 22/51/22
f 17/9/17 24/24/24 23/17/23
f 17/9/17 25/26/25 24/24/24
f 17/9/17 26/27/26 25/26/25
f 17/9/17 27/28/27 26/27/26
f 17/78/17 28/76/28 27/77/27
f 17/78/17 29/75/29 28/76/28
f 17/78/17 30/74/30 29/75/29
f 17/78/17 31/73/31 30/74/30
f 17/78/17 32/72/32 31/73/31
f 17/78/17 33/67/33 32/72/32
f 18/65/18 19/63/19 1/43/1
f 18/65/18 33/67/33 17/78/17
f 20/58/20 21/55/21 3/35/3
f 22/51/22 23/49/23 5/33/5
f 24/80/24 25/81/25 7/70/7
f 26/79/26 27/77/27 9/69/9
f 28/76/28 29/75/29 11/66/11
f 30/74/30 31/73/31 13/59/13
f 32/72/32 33/67/33 15/50/15
f 34/14/34 1/43/1 35/13/35
f 34/14/34 49/15/49 1/43/1
f 35/13/35 3/35/3 36/12/36
f 35/57/35 49/47/49 34/52/34
f 36/12/36 3/35/3 37/11/37
f 36/60/36 48/44/48 35/57/35
f 37/11/37 5/33/5 38/10/38
f 37/62/37 47/40/47 36/60/36
f 38/10/38 5/33/5 39/8/39
f 38/61/38 46/37/46 37/62/37
f 39/8/39 7/31/7 40/7/40
f 39/56/39 45/36/45 38/61/38
f 40/7/40 7/31/7 41/6/41
f 40/53/40 44/38/44 39/56/39
f 41/6/41 9/29/9 42/5/42
f 41/48/41 43/41/43 40/53/40
f 42/4/42 9/23/9 43/3/43
f 42/45/42 43/41/43 41/48/41
f 43/3/43 11/20/11 44/2/44
f 44/2/44 11/20/11 45/1/45
f 44/38/44 40/53/40 43/41/43
f 45/25/45 13/59/13 46/22/46
f 45/36/45 39/56/39 44/38/44
f 46/22/46 13/59/13 47/19/47
f 46/37/46 38/61/38 45/36/45
f 47/19/47 15/50/15 48/16/48
f 47/40/47 37/62/37 46/37/46
f 48/16/48 15/50/15 49/15/49
f 48/44/48 36/60/36 47/40/47
f 49/47/49 35/57/35 48/44/48
