# Exported from Wings 3D 1.2
mtllib rifle_01.mtl
o cube1
#80 vertices, 50 faces
v -6.2142663e-2 1.7863328e-2 -0.94227201
v -6.2636483e-2 0.13128613 -0.94085405
v -2.3522825e-2 0.12678050 1.05873547
v -2.3029005e-2 1.3357697e-2 1.05731751
v 6.9280138e-2 1.7972996e-2 -0.94484139
v 6.8786318e-2 0.13139580 -0.94342343
v 0.10789998 0.12689017 1.05616609
v 0.10839380 1.3467365e-2 1.05474813
v -7.2567629e-3 0.14458671 0.26841493
v -8.0946554e-2 0.15738612 0.27006950
v -0.13752607 0.18122687 0.27162666
v -0.16838161 0.21247942 0.27284933
v -0.16881567 0.24638586 0.27355138
v -0.13876220 0.27778423 0.27362592
v -8.2796540e-2 0.30189442 0.27306161
v -9.4389704e-3 0.31504587 0.27194437
v 7.0142487e-2 0.31523640 0.27044427
v 0.14383228 0.30243699 0.26878969
v 0.20041180 0.27859624 0.26723254
v 0.23126733 0.24734369 0.26600987
v 0.23170140 0.21343725 0.26530782
v 0.20164792 0.18203888 0.26523328
v 0.14568226 0.15792869 0.26579758
v 7.2324695e-2 0.14477724 0.26691483
v -1.4965822e-2 0.14610155 -0.13949673
v -8.8655613e-2 0.15890096 -0.13784216
v -0.14523513 0.18274171 -0.13628501
v -0.17609067 0.21399426 -0.13506234
v -0.17652473 0.24790070 -0.13436029
v -0.14647126 0.27929907 -0.13428574
v -9.0505599e-2 0.30340926 -0.13485005
v -1.7148030e-2 0.31656071 -0.13596730
v 6.2433428e-2 0.31675123 -0.13746740
v 0.13612322 0.30395182 -0.13912197
v 0.19270274 0.28011107 -0.14067912
v 0.22355827 0.24885852 -0.14190179
v 0.22399234 0.21495209 -0.14260384
v 0.19393886 0.18355372 -0.14267839
v 0.13797320 0.15944352 -0.14211408
v 6.4615636e-2 0.14629207 -0.14099683
v -7.8067289e-3 2.4720231e-2 -0.83025807
v 6.8988288e-2 2.3630557e-2 -0.83187831
v 0.13696904 1.8267075e-2 -0.83376571
v 0.18578606 9.4463271e-3 -0.83563295
v 0.20800742 -1.4888088e-3 -0.83719575
v 0.20025010 -1.2873557e-2 -0.83821620
v 0.16369509 -2.2974692e-2 -0.83853893
v 0.10390756 -3.0254409e-2 -0.83811482
v 2.9989624e-2 -3.3604436e-2 -0.83700842
v -4.6805393e-2 -3.2514762e-2 -0.83538819
v -0.11478614 -2.7151280e-2 -0.83350079
v -0.16360317 -1.8330532e-2 -0.83163355
v -0.18582452 -7.3953962e-3 -0.83007075
v -0.17806720 3.9893519e-3 -0.82905030
v -0.14151220 1.4090487e-2 -0.82872757
v -8.1724669e-2 2.1370204e-2 -0.82915168
v 1.2027122e-2 2.2128649e-2 0.18362661
v 8.8822139e-2 2.1038975e-2 0.18200638
v 0.15680289 1.5675493e-2 0.18011897
v 0.20561991 6.8547445e-3 0.17825173
v 0.22784127 -4.0803914e-3 0.17668893
v 0.22008395 -1.5465139e-2 0.17566848
v 0.18352894 -2.5566275e-2 0.17534575
v 0.12374142 -3.2845992e-2 0.17576986
v 4.9823475e-2 -3.6196019e-2 0.17687626
v -2.6971542e-2 -3.5106345e-2 0.17849649
v -9.4952289e-2 -2.9742863e-2 0.18038389
v -0.14376931 -2.0922115e-2 0.18225113
v -0.16599067 -9.9869788e-3 0.18381393
v -0.15823335 1.3977692e-3 0.18483438
v -0.12167835 1.1498905e-2 0.18515711
v -6.1890818e-2 1.8778622e-2 0.18473300
v 0.15592953 2.4800945e-2 1.11748159
v 0.15636126 -7.4360054e-2 1.11624193
v 0.15180890 -7.3835653e-2 0.88351370
v 0.15137717 2.5325347e-2 0.88475337
v -7.6801548e-2 2.4606739e-2 1.12203160
v -7.6369821e-2 -7.4554260e-2 1.12079193
v -8.0922181e-2 -7.4029859e-2 0.88806371
v -8.1353909e-2 2.5131141e-2 0.88930337
vn -0.58933540 -0.57407061 -0.56844237
vn -0.56820531 0.72994825 -0.37989246
vn -0.55602131 0.72449120 0.40737305
vn -0.56287222 -0.58445422 0.58445541
vn 0.56903783 -0.57017115 -0.59253760
vn 0.61379358 0.68125599 -0.39893322
vn 0.63228955 0.67530873 0.37969467
vn 0.58773760 -0.58063321 0.56340891
vn -0.40892907 0.59336304 0.69332339
vn -0.24139443 -0.86081021 0.44803406
vn -0.48809808 -0.74287437 0.45814620
vn -0.80080903 -0.34848534 0.48709637
vn -0.81159367 0.31341057 0.49304111
vn -0.50225423 0.72633578 0.46923024
vn -0.25023199 0.85170746 0.46041107
vn -7.2163422e-2 0.88689849 0.45629323
vn 8.4770307e-2 0.88730776 0.45331990
vn 0.26162433 0.85347933 0.45069473
vn 0.51086349 0.73257061 0.44984307
vn 0.82312060 0.33090620 0.46149059
vn 0.82535281 -0.33120196 0.45727235
vn 0.51376950 -0.73678374 0.43953454
vn 0.26390800 -0.85908432 0.43855069
vn 0.54795239 0.50800413 0.66459009
vn -0.42805946 0.61122354 -0.66571081
vn -0.26162433 -0.85347933 -0.45069473
vn -0.51086349 -0.73257061 -0.44984307
vn -0.82312060 -0.33090620 -0.46149059
vn -0.82535281 0.33120196 -0.45727235
vn -0.51376950 0.73678374 -0.43953454
vn -0.26390800 0.85908432 -0.43855069
vn -8.8041623e-2 0.89334853 -0.44065527
vn 6.6807508e-2 0.89374686 -0.44356884
vn 0.24139443 0.86081021 -0.44803406
vn 0.48809808 0.74287437 -0.45814620
vn 0.80080903 0.34848534 -0.48709637
vn 0.81159367 -0.31341057 -0.49304111
vn 0.50225423 -0.72633578 -0.46923024
vn 0.25023199 -0.85170746 -0.46041107
vn 0.51519194 0.52769546 -0.67536269
vn 2.1747017e-2 -0.90460878 0.42568771
vn -3.1595931e-2 -0.90380559 0.42677529
vn -0.10209100 -0.89774222 0.42852811
vn -0.26039397 -0.86184749 0.43521705
vn -0.74777946 -0.26226611 0.60995275
vn -0.52281154 0.69293033 0.49650342
vn -0.17168549 0.86567825 0.47023958
vn -6.8345396e-2 0.88119411 0.46778826
vn -5.3437949e-3 0.88449236 0.46652408
vn 5.2446031e-2 0.88354478 0.46540095
vn 0.12875949 0.87641517 0.46402311
vn 0.29941106 0.83427320 0.46297003
vn 0.79035218 0.14302700 0.59572368
vn 0.50644741 -0.74092572 0.44106700
vn 0.17554732 -0.88858502 0.42379216
vn 7.9919988e-2 -0.90179888 0.42470175
vn 5.3437949e-3 -0.88449236 -0.46652408
vn -5.2446031e-2 -0.88354478 -0.46540095
vn -0.12875949 -0.87641517 -0.46402311
vn -0.29941106 -0.83427320 -0.46297003
vn -0.79035218 -0.14302700 -0.59572368
vn -0.50644741 0.74092572 -0.44106700
vn -0.17554732 0.88858502 -0.42379216
vn -7.9919988e-2 0.90179888 -0.42470175
vn -2.1747017e-2 0.90460878 -0.42568771
vn 3.1595931e-2 0.90380559 -0.42677529
vn 0.10209100 0.89774222 -0.42852811
vn 0.26039397 0.86184749 -0.43521705
vn 0.74777946 0.26226611 -0.60995275
vn 0.52281154 -0.69293033 -0.49650342
vn 0.17168549 -0.86567825 -0.47023958
vn 6.8345396e-2 -0.88119411 -0.46778826
vn -0.58933540 -0.57407061 -0.56844237
vn -0.58773760 0.58063321 -0.56340891
vn -0.56903783 0.57017115 0.59253760
vn -0.56287222 -0.58445422 0.58445541
vn 0.56903783 -0.57017115 -0.59253760
vn 0.56287222 0.58445422 -0.58445541
vn 0.58933540 0.57407061 0.56844237
vn 0.58773760 -0.58063321 0.56340891
g cube1_default
usemtl default
s 1
f 1//1 4//4 3//3 2//2
f 1//1 5//5 8//8 4//4
f 2//2 6//6 5//5 1//1
f 2//2 25//25 40//40 6//6
f 3//3 9//9 25//25 2//2
f 4//4 8//8 7//7 3//3
f 6//6 7//7 8//8 5//5
f 6//6 40//40 24//24 7//7
f 7//7 24//24 9//9 3//3
f 9//9 24//24 23//23 22//22 21//21 20//20 19//19 18//18 17//17 16//16 15//15 14//14 13//13 12//12 11//11 10//10
f 10//10 26//26 25//25 9//9
f 11//11 27//27 26//26 10//10
f 12//12 28//28 27//27 11//11
f 13//13 29//29 28//28 12//12
f 14//14 30//30 29//29 13//13
f 15//15 31//31 30//30 14//14
f 16//16 32//32 31//31 15//15
f 17//17 33//33 32//32 16//16
f 18//18 34//34 33//33 17//17
f 19//19 35//35 34//34 18//18
f 20//20 36//36 35//35 19//19
f 21//21 37//37 36//36 20//20
f 22//22 38//38 37//37 21//21
f 23//23 39//39 38//38 22//22
f 24//24 40//40 39//39 23//23
f 26//26 27//27 28//28 29//29 30//30 31//31 32//32 33//33 34//34 35//35 36//36 37//37 38//38 39//39 40//40 25//25
f 41//41 56//56 55//55 54//54 53//53 52//52 51//51 50//50 49//49 48//48 47//47 46//46 45//45 44//44 43//43 42//42
f 41//41 57//57 72//72 56//56
f 42//42 58//58 57//57 41//41
f 43//43 59//59 58//58 42//42
f 44//44 60//60 59//59 43//43
f 45//45 61//61 60//60 44//44
f 46//46 62//62 61//61 45//45
f 47//47 63//63 62//62 46//46
f 48//48 64//64 63//63 47//47
f 49//49 65//65 64//64 48//48
f 50//50 66//66 65//65 49//49
f 51//51 67//67 66//66 50//50
f 52//52 68//68 67//67 51//51
f 53//53 69//69 68//68 52//52
f 54//54 70//70 69//69 53//53
f 55//55 71//71 70//70 54//54
f 56//56 72//72 71//71 55//55
f 58//58 59//59 60//60 61//61 62//62 63//63 64//64 65//65 66//66 67//67 68//68 69//69 70//70 71//71 72//72 57//57
f 73//73 76//76 75//75 74//74
f 73//73 77//77 80//80 76//76
f 74//74 78//78 77//77 73//73
f 75//75 79//79 78//78 74//74
f 76//76 80//80 79//79 75//75
f 78//78 79//79 80//80 77//77
