# Exported from Wings 3D 1.2
mtllib rifle.mtl
o cube1
#80 vertices, 50 faces
v -6.2142663e-2 -8.5733341e-2 -0.94227201
v -6.2636483e-2 0.18051737 -0.94085405
v -2.3522825e-2 0.16994077 1.05873547
v -2.3029005e-2 -9.6309940e-2 1.05731751
v 6.9280138e-2 -8.5475905e-2 -0.94484139
v 6.8786318e-2 0.18077481 -0.94342343
v 0.10789998 0.17019821 1.05616609
v 0.10839380 -9.6052504e-2 1.05474813
v -7.2567629e-3 0.21173939 0.26841493
v -8.0946554e-2 0.24178495 0.27006950
v -0.13752607 0.29774916 0.27162666
v -0.16838161 0.37111195 0.27284933
v -0.16881567 0.45070452 0.27355138
v -0.13876220 0.52440962 0.27362592
v -8.2796540e-2 0.58100632 0.27306161
v -9.4389704e-3 0.61187827 0.27194437
v 7.0142487e-2 0.61232551 0.27044427
v 0.14383228 0.58227995 0.26878969
v 0.20041180 0.52631574 0.26723254
v 0.23126733 0.45295295 0.26600987
v 0.23170140 0.37336038 0.26530782
v 0.20164792 0.29965528 0.26523328
v 0.14568226 0.24305858 0.26579758
v 7.2324695e-2 0.21218663 0.26691483
v -1.4965822e-2 0.21529535 -0.13949673
v -8.8655613e-2 0.24534091 -0.13784216
v -0.14523513 0.30130511 -0.13628501
v -0.17609067 0.37466791 -0.13506234
v -0.17652473 0.45426048 -0.13436029
v -0.14647126 0.52796558 -0.13428574
v -9.0505599e-2 0.58456227 -0.13485005
v -1.7148030e-2 0.61543422 -0.13596730
v 6.2433428e-2 0.61588146 -0.13746740
v 0.13612322 0.58583590 -0.13912197
v 0.19270274 0.52987170 -0.14067912
v 0.22355827 0.45650890 -0.14190179
v 0.22399234 0.37691633 -0.14260384
v 0.19393886 0.30321123 -0.14267839
v 0.13797320 0.24661454 -0.14211408
v 6.4615636e-2 0.21574258 -0.14099683
v -7.8067289e-3 -6.9637324e-2 -0.83025807
v 6.8988288e-2 -7.2195244e-2 -0.83187831
v 0.13696904 -8.4785577e-2 -0.83376571
v 0.18578606 -0.10549156 -0.83563295
v 0.20800742 -0.13116089 -0.83719575
v 0.20025010 -0.15788565 -0.83821620
v 0.16369509 -0.18159724 -0.83853893
v 0.10390756 -0.19868578 -0.83811482
v 2.9989624e-2 -0.20654969 -0.83700842
v -4.6805393e-2 -0.20399177 -0.83538819
v -0.11478614 -0.19140144 -0.83350079
v -0.16360317 -0.17069545 -0.83163355
v -0.18582452 -0.14502612 -0.83007075
v -0.17806720 -0.11830136 -0.82905030
v -0.14151220 -9.4589774e-2 -0.82872757
v -8.1724669e-2 -7.7501237e-2 -0.82915168
v 1.2027122e-2 -7.5720851e-2 0.18362661
v 8.8822139e-2 -7.8278771e-2 0.18200638
v 0.15680289 -9.0869104e-2 0.18011897
v 0.20561991 -0.11157509 0.17825173
v 0.22784127 -0.13724442 0.17668893
v 0.22008395 -0.16396918 0.17566848
v 0.18352894 -0.18768077 0.17534575
v 0.12374142 -0.20476930 0.17576986
v 4.9823475e-2 -0.21263322 0.17687626
v -2.6971542e-2 -0.21007530 0.17849649
v -9.4952289e-2 -0.19748496 0.18038389
v -0.14376931 -0.17677898 0.18225113
v -0.16599067 -0.15110965 0.18381393
v -0.15823335 -0.12438489 0.18483438
v -0.12167835 -0.10067330 0.18515711
v -6.1890818e-2 -8.3584765e-2 0.18473300
v 0.15592953 -6.9447855e-2 1.11748159
v 0.15636126 -0.30222015 1.11624193
v 0.15180890 -0.30098916 0.88351370
v 0.15137717 -6.8216866e-2 0.88475337
v -7.6801548e-2 -6.9903737e-2 1.12203160
v -7.6369821e-2 -0.30267604 1.12079193
v -8.0922181e-2 -0.30144505 0.88806371
v -8.1353909e-2 -6.8672748e-2 0.88930337
vn -0.58745919 -0.57541861 -0.56902120
vn -0.68148943 0.62417062 -0.38207747
vn -0.66594480 0.62000617 0.41486127
vn -0.56487691 -0.58152501 0.58544235
vn 0.56701852 -0.57315717 -0.59159180
vn 0.71537857 0.56321705 -0.41354571
vn 0.73113859 0.55900350 0.39109007
vn 0.58960080 -0.57926357 0.56287175
vn -0.66151707 0.41168215 0.62682771
vn -0.48224560 -0.74746361 0.45687780
vn -0.72933979 -0.50305665 0.46367821
vn -0.86409212 -0.18266652 0.46901786
vn -0.86598778 0.16493030 0.47208385
vn -0.73473818 0.48681533 0.47240940
vn -0.49032487 0.73398451 0.46994496
vn -0.16995756 0.86880856 0.46506571
vn 0.17759072 0.87076174 0.45851448
vn 0.49940890 0.73954670 0.45128862
vn 0.74650308 0.49513975 0.44448822
vn 0.88125542 0.17474961 0.43914857
vn 0.88315108 -0.17284720 0.43608258
vn 0.75190147 -0.49473224 0.43575703
vn 0.50748816 -0.74190142 0.43822147
vn 0.74641479 0.30570557 0.59110834
vn -0.68217540 0.42058135 -0.59812043
vn -0.49940890 -0.73954670 -0.45128862
vn -0.74650308 -0.49513975 -0.44448822
vn -0.88125542 -0.17474961 -0.43914857
vn -0.88315108 0.17284720 -0.43608258
vn -0.75190147 0.49473224 -0.43575703
vn -0.50748816 0.74190142 -0.43822147
vn -0.18712086 0.87672546 -0.44310072
vn 0.16042742 0.87867865 -0.44965195
vn 0.48224560 0.74746361 -0.45687780
vn 0.72933979 0.50305665 -0.46367821
vn 0.86409212 0.18266652 -0.46901786
vn 0.86598778 -0.16493030 -0.47208385
vn 0.73473818 -0.48681533 -0.47240940
vn 0.49032487 -0.73398451 -0.46994496
vn 0.72067487 0.31480980 -0.61767510
vn 4.0559748e-2 -0.89950163 0.43503071
vn -8.6537713e-2 -0.89494070 0.43771266
vn -0.24493783 -0.86275118 0.44234134
vn -0.50812200 -0.73042042 0.45639682
vn -0.83617114 -0.20735814 0.50776021
vn -0.70573007 0.50991093 0.49186981
vn -0.36576381 0.80370819 0.46932930
vn -0.16429231 0.87068587 0.46358834
vn -2.3958116e-2 0.88728936 0.46059048
vn 0.10703995 0.88243245 0.45809979
vn 0.27005470 0.84823388 0.45559823
vn 0.53903621 0.70824719 0.45587924
vn 0.86144238 0.16528714 0.48020537
vn 0.71089473 -0.54131060 0.44901171
vn 0.37320591 -0.82071476 0.43260216
vn 0.17680768 -0.88387142 0.43302466
vn 2.3958116e-2 -0.88728936 -0.46059048
vn -0.10703995 -0.88243245 -0.45809979
vn -0.27005470 -0.84823388 -0.45559823
vn -0.53903621 -0.70824719 -0.45587924
vn -0.86144238 -0.16528714 -0.48020537
vn -0.71089473 0.54131060 -0.44901171
vn -0.37320591 0.82071476 -0.43260216
vn -0.17680768 0.88387142 -0.43302466
vn -4.0559748e-2 0.89950163 -0.43503071
vn 8.6537713e-2 0.89494070 -0.43771266
vn 0.24493783 0.86275118 -0.44234134
vn 0.50812200 0.73042042 -0.45639682
vn 0.83617114 0.20735814 -0.50776021
vn 0.70573007 -0.50991093 -0.49186981
vn 0.36576381 -0.80370819 -0.46932930
vn 0.16429231 -0.87068587 -0.46358834
vn -0.58745919 -0.57541861 -0.56902120
vn -0.58960080 0.57926357 -0.56287175
vn -0.56701852 0.57315717 0.59159180
vn -0.56487691 -0.58152501 0.58544235
vn 0.56701852 -0.57315717 -0.59159180
vn 0.56487691 0.58152501 -0.58544235
vn 0.58745919 0.57541861 0.56902120
vn 0.58960080 -0.57926357 0.56287175
g cube1_default
usemtl default
s 1
f 1//1 4//4 3//3 2//2
f 1//1 5//5 8//8 4//4
f 2//2 6//6 5//5 1//1
f 2//2 25//25 40//40 6//6
f 3//3 9//9 25//25 2//2
f 4//4 8//8 7//7 3//3
f 6//6 7//7 8//8 5//5
f 6//6 40//40 24//24 7//7
f 7//7 24//24 9//9 3//3
f 9//9 24//24 23//23 22//22 21//21 20//20 19//19 18//18 17//17 16//16 15//15 14//14 13//13 12//12 11//11 10//10
f 10//10 26//26 25//25 9//9
f 11//11 27//27 26//26 10//10
f 12//12 28//28 27//27 11//11
f 13//13 29//29 28//28 12//12
f 14//14 30//30 29//29 13//13
f 15//15 31//31 30//30 14//14
f 16//16 32//32 31//31 15//15
f 17//17 33//33 32//32 16//16
f 18//18 34//34 33//33 17//17
f 19//19 35//35 34//34 18//18
f 20//20 36//36 35//35 19//19
f 21//21 37//37 36//36 20//20
f 22//22 38//38 37//37 21//21
f 23//23 39//39 38//38 22//22
f 24//24 40//40 39//39 23//23
f 26//26 27//27 28//28 29//29 30//30 31//31 32//32 33//33 34//34 35//35 36//36 37//37 38//38 39//39 40//40 25//25
f 41//41 56//56 55//55 54//54 53//53 52//52 51//51 50//50 49//49 48//48 47//47 46//46 45//45 44//44 43//43 42//42
f 41//41 57//57 72//72 56//56
f 42//42 58//58 57//57 41//41
f 43//43 59//59 58//58 42//42
f 44//44 60//60 59//59 43//43
f 45//45 61//61 60//60 44//44
f 46//46 62//62 61//61 45//45
f 47//47 63//63 62//62 46//46
f 48//48 64//64 63//63 47//47
f 49//49 65//65 64//64 48//48
f 50//50 66//66 65//65 49//49
f 51//51 67//67 66//66 50//50
f 52//52 68//68 67//67 51//51
f 53//53 69//69 68//68 52//52
f 54//54 70//70 69//69 53//53
f 55//55 71//71 70//70 54//54
f 56//56 72//72 71//71 55//55
f 58//58 59//59 60//60 61//61 62//62 63//63 64//64 65//65 66//66 67//67 68//68 69//69 70//70 71//71 72//72 57//57
f 73//73 76//76 75//75 74//74
f 73//73 77//77 80//80 76//76
f 74//74 78//78 77//77 73//73
f 75//75 79//79 78//78 74//74
f 76//76 80//80 79//79 75//75
f 78//78 79//79 80//80 77//77
